solid ASCII
  facet normal 0.000000e+00 -1.000000e+00 0.000000e+00
    outer loop
      vertex   -2.000000e+00 -2.000000e+00 2.000000e+00
      vertex   -2.000000e+00 -2.000000e+00 -2.000000e+00
      vertex   2.000000e+00 -2.000000e+00 2.000000e+00
    endloop
  endfacet
  facet normal 0.000000e+00 -1.000000e+00 -0.000000e+00
    outer loop
      vertex   2.000000e+00 -2.000000e+00 2.000000e+00
      vertex   -2.000000e+00 -2.000000e+00 -2.000000e+00
      vertex   2.000000e+00 -2.000000e+00 -2.000000e+00
    endloop
  endfacet
  facet normal 0.000000e+00 0.000000e+00 -1.000000e+00
    outer loop
      vertex   -2.000000e+00 2.000000e+00 -2.000000e+00
      vertex   2.000000e+00 2.000000e+00 -2.000000e+00
      vertex   -2.000000e+00 -2.000000e+00 -2.000000e+00
    endloop
  endfacet
  facet normal 0.000000e+00 0.000000e+00 -1.000000e+00
    outer loop
      vertex   -2.000000e+00 -2.000000e+00 -2.000000e+00
      vertex   2.000000e+00 2.000000e+00 -2.000000e+00
      vertex   2.000000e+00 -2.000000e+00 -2.000000e+00
    endloop
  endfacet
  facet normal 1.000000e+00 0.000000e+00 -0.000000e+00
    outer loop
      vertex   2.000000e+00 2.000000e+00 -2.000000e+00
      vertex   2.000000e+00 2.000000e+00 2.000000e+00
      vertex   2.000000e+00 -2.000000e+00 -2.000000e+00
    endloop
  endfacet
  facet normal 1.000000e+00 0.000000e+00 0.000000e+00
    outer loop
      vertex   2.000000e+00 -2.000000e+00 -2.000000e+00
      vertex   2.000000e+00 2.000000e+00 2.000000e+00
      vertex   2.000000e+00 -2.000000e+00 2.000000e+00
    endloop
  endfacet
  facet normal 0.000000e+00 0.000000e+00 1.000000e+00
    outer loop
      vertex   2.000000e+00 2.000000e+00 2.000000e+00
      vertex   -2.000000e+00 2.000000e+00 2.000000e+00
      vertex   2.000000e+00 -2.000000e+00 2.000000e+00
    endloop
  endfacet
  facet normal 0.000000e+00 0.000000e+00 1.000000e+00
    outer loop
      vertex   2.000000e+00 -2.000000e+00 2.000000e+00
      vertex   -2.000000e+00 2.000000e+00 2.000000e+00
      vertex   -2.000000e+00 -2.000000e+00 2.000000e+00
    endloop
  endfacet
  facet normal -1.000000e+00 -0.000000e+00 -0.000000e+00
    outer loop
      vertex   -2.000000e+00 2.000000e+00 2.000000e+00
      vertex   -2.000000e+00 2.000000e+00 -2.000000e+00
      vertex   -2.000000e+00 -2.000000e+00 2.000000e+00
    endloop
  endfacet
  facet normal -1.000000e+00 0.000000e+00 0.000000e+00
    outer loop
      vertex   -2.000000e+00 -2.000000e+00 2.000000e+00
      vertex   -2.000000e+00 2.000000e+00 -2.000000e+00
      vertex   -2.000000e+00 -2.000000e+00 -2.000000e+00
    endloop
  endfacet
  facet normal 0.000000e+00 1.000000e+00 0.000000e+00
    outer loop
      vertex   -2.000000e+00 2.000000e+00 -2.000000e+00
      vertex   -2.000000e+00 2.000000e+00 2.000000e+00
      vertex   2.000000e+00 2.000000e+00 -2.000000e+00
    endloop
  endfacet
  facet normal 0.000000e+00 1.000000e+00 -0.000000e+00
    outer loop
      vertex   2.000000e+00 2.000000e+00 -2.000000e+00
      vertex   -2.000000e+00 2.000000e+00 2.000000e+00
      vertex   2.000000e+00 2.000000e+00 2.000000e+00
    endloop
  endfacet
  facet normal -0.000000e+00 1.000000e+00 0.000000e+00
    outer loop
      vertex   -1.010000e+00 -1.010000e+00 -1.010000e+00
      vertex   -1.010000e+00 -1.010000e+00 1.010000e+00
      vertex   1.010000e+00 -1.010000e+00 -1.010000e+00
    endloop
  endfacet
  facet normal 0.000000e+00 1.000000e+00 -0.000000e+00
    outer loop
      vertex   1.010000e+00 -1.010000e+00 -1.010000e+00
      vertex   -1.010000e+00 -1.010000e+00 1.010000e+00
      vertex   1.010000e+00 -1.010000e+00 1.010000e+00
    endloop
  endfacet
  facet normal 1.099231e-16 -0.000000e+00 1.000000e+00
    outer loop
      vertex   -1.010000e+00 -1.010000e+00 -1.010000e+00
      vertex   1.010000e+00 -1.010000e+00 -1.010000e+00
      vertex   -1.010000e+00 1.010000e+00 -1.010000e+00
    endloop
  endfacet
  facet normal 1.099231e-16 0.000000e+00 1.000000e+00
    outer loop
      vertex   -1.010000e+00 1.010000e+00 -1.010000e+00
      vertex   1.010000e+00 -1.010000e+00 -1.010000e+00
      vertex   1.010000e+00 1.010000e+00 -1.010000e+00
    endloop
  endfacet
  facet normal -1.000000e+00 0.000000e+00 1.099231e-16
    outer loop
      vertex   1.010000e+00 -1.010000e+00 -1.010000e+00
      vertex   1.010000e+00 -1.010000e+00 1.010000e+00
      vertex   1.010000e+00 1.010000e+00 -1.010000e+00
    endloop
  endfacet
  facet normal -1.000000e+00 0.000000e+00 1.099231e-16
    outer loop
      vertex   1.010000e+00 1.010000e+00 -1.010000e+00
      vertex   1.010000e+00 -1.010000e+00 1.010000e+00
      vertex   1.010000e+00 1.010000e+00 1.010000e+00
    endloop
  endfacet
  facet normal -1.099231e-16 0.000000e+00 -1.000000e+00
    outer loop
      vertex   1.010000e+00 -1.010000e+00 1.010000e+00
      vertex   -1.010000e+00 -1.010000e+00 1.010000e+00
      vertex   1.010000e+00 1.010000e+00 1.010000e+00
    endloop
  endfacet
  facet normal -1.099231e-16 0.000000e+00 -1.000000e+00
    outer loop
      vertex   1.010000e+00 1.010000e+00 1.010000e+00
      vertex   -1.010000e+00 -1.010000e+00 1.010000e+00
      vertex   -1.010000e+00 1.010000e+00 1.010000e+00
    endloop
  endfacet
  facet normal 1.000000e+00 0.000000e+00 -1.099231e-16
    outer loop
      vertex   -1.010000e+00 -1.010000e+00 1.010000e+00
      vertex   -1.010000e+00 -1.010000e+00 -1.010000e+00
      vertex   -1.010000e+00 1.010000e+00 1.010000e+00
    endloop
  endfacet
  facet normal 1.000000e+00 0.000000e+00 -1.099231e-16
    outer loop
      vertex   -1.010000e+00 1.010000e+00 1.010000e+00
      vertex   -1.010000e+00 -1.010000e+00 -1.010000e+00
      vertex   -1.010000e+00 1.010000e+00 -1.010000e+00
    endloop
  endfacet
  facet normal 0.000000e+00 -1.000000e+00 -0.000000e+00
    outer loop
      vertex   -1.010000e+00 1.010000e+00 1.010000e+00
      vertex   -1.010000e+00 1.010000e+00 -1.010000e+00
      vertex   1.010000e+00 1.010000e+00 1.010000e+00
    endloop
  endfacet
  facet normal 0.000000e+00 -1.000000e+00 0.000000e+00
    outer loop
      vertex   1.010000e+00 1.010000e+00 1.010000e+00
      vertex   -1.010000e+00 1.010000e+00 -1.010000e+00
      vertex   1.010000e+00 1.010000e+00 -1.010000e+00
    endloop
  endfacet
endsolid
